<svg width="64" height="64" xmlns="http://www.w3.org/2000/svg">

 <g>
  <title>Layer 1</title>
  <path stroke="#000" opacity="0.3" id="svg_6" d="m8.07543,46.50042l47.8127,0.01825l-1.55153,2.29293l-44.69131,-0.05476l-1.56985,-2.25642l0,0zm0.32857,-30.50115l47.1738,-0.05476l1.36904,2.35219l-49.93015,0.01825l1.38731,-2.31569zm-4.65548,15.28371l56.44822,-0.05476l-0.07297,2.3522l-56.33875,-0.0365l-0.03651,-2.26093zm56.49495,0.21816c0,15.57209 -12.67136,28.24015 -28.24913,28.24015c-15.57104,0 -28.24004,-12.67034 -28.24004,-28.24015c0,-15.56988 12.67129,-28.23793 28.24004,-28.23793c15.57777,-0.00229 28.24913,12.66805 28.24913,28.23793zm-28.24691,-30.50115c-16.81401,0 -30.49656,13.68153 -30.49656,30.49886c0,16.81961 13.68256,30.50115 30.49656,30.50115c16.82316,0 30.50344,-13.68153 30.50344,-30.50115c0,-16.81732 -13.68027,-30.49886 -30.50344,-30.49886zm8.55819,30.50115c0,16.64008 -4.50861,28.24015 -8.55819,28.24015c-4.045,0 -8.55354,-11.60007 -8.55354,-28.24015c0,-16.64466 4.50632,-28.23793 8.55354,-28.23793c4.04729,-0.00229 8.55819,11.59327 8.55819,28.23793zm-8.55819,-30.50115c-7.02415,0 -10.81464,15.71522 -10.81464,30.49886c0,14.78815 3.79049,30.50115 10.81464,30.50115c7.02423,0 10.82158,-15.71528 10.82158,-30.50115c-0.00229,-14.78363 -3.79736,-30.49886 -10.82158,-30.49886zm20.04324,30.50115c0,15.57209 -8.99447,28.24015 -20.04324,28.24015c-11.04648,0 -20.03637,-12.67034 -20.03637,-28.24015c0,-15.56988 8.9899,-28.23793 20.03637,-28.23793c11.04877,-0.00229 20.04324,12.66805 20.04324,28.23793zm-20.04324,-30.50115c-12.29181,0 -22.29747,13.68153 -22.29747,30.49886c0,16.81961 10.00567,30.50115 22.29747,30.50115c12.29638,0 22.29983,-13.68153 22.29983,-30.50115c0,-16.81732 -10.00345,-30.49886 -22.29983,-30.49886z" stroke-width="0" fill="#000000"/>
  <text font-weight="bold" transform="matrix(1 0 0 1 0 0)" xml:space="preserve" text-anchor="start" font-family="serif" font-size="39" id="svg_13" y="45.5" x="9.15503" stroke-width="0" stroke="#000" fill="#000000">ST</text>
 </g>
</svg>